<svg width="27" height="29" viewBox="0 0 27 29" fill="none" xmlns="http://www.w3.org/2000/svg">
<path d="M17.8125 22.125V23.5625C17.8125 24.1288 17.701 24.6896 17.4842 25.2128C17.2675 25.736 16.9499 26.2114 16.5494 26.6119C16.1489 27.0124 15.6735 27.33 15.1503 27.5467C14.6271 27.7635 14.0663 27.875 13.5 27.875C12.9337 27.875 12.3729 27.7635 11.8497 27.5467C11.3265 27.33 10.8511 27.0124 10.4506 26.6119C10.0501 26.2114 9.73249 25.736 9.51577 25.2128C9.29905 24.6896 9.1875 24.1288 9.1875 23.5625V22.125H25C25 22.125 22.125 14.9375 22.125 10.625M17.8125 3.18538C16.5373 2.43375 15.0612 2 13.5 2C8.80225 2 4.875 5.92725 4.875 10.625C4.875 16.375 2 22.125 2 22.125H4.875" stroke="black" stroke-width="2.15625" stroke-linecap="round" stroke-linejoin="round"/>
</svg>
